<mxfile host="65bd71144e">
    <diagram id="-ixM-T9nIY9CSK3nU8n0" name="Page-1">
        <mxGraphModel dx="589" dy="770" grid="1" gridSize="10" guides="1" tooltips="1" connect="1" arrows="1" fold="1" page="1" pageScale="1" pageWidth="1169" pageHeight="827" math="0" shadow="0">
            <root>
                <mxCell id="0"/>
                <mxCell id="1" parent="0"/>
                <mxCell id="2" value="Domain A" style="whiteSpace=wrap;html=1;" parent="1" vertex="1">
                    <mxGeometry x="355" y="310" width="120" height="60" as="geometry"/>
                </mxCell>
                <mxCell id="3" value="Domain B" style="whiteSpace=wrap;html=1;" parent="1" vertex="1">
                    <mxGeometry x="695" y="310" width="120" height="60" as="geometry"/>
                </mxCell>
                <mxCell id="4" value="" style="shape=singleArrow;direction=west;whiteSpace=wrap;html=1;" parent="1" vertex="1">
                    <mxGeometry x="510" y="290" width="145" height="30" as="geometry"/>
                </mxCell>
                <mxCell id="5" value="Access Allowed" style="text;strokeColor=none;align=center;fillColor=none;html=1;verticalAlign=middle;whiteSpace=wrap;rounded=0;fontStyle=1" parent="1" vertex="1">
                    <mxGeometry x="630" y="250" width="100" height="30" as="geometry"/>
                </mxCell>
                <mxCell id="6" value="" style="shape=singleArrow;whiteSpace=wrap;html=1;" parent="1" vertex="1">
                    <mxGeometry x="525" y="340" width="130" height="30" as="geometry"/>
                </mxCell>
                <mxCell id="7" value="Trust" style="text;strokeColor=none;align=center;fillColor=none;html=1;verticalAlign=middle;whiteSpace=wrap;rounded=0;fontStyle=1" parent="1" vertex="1">
                    <mxGeometry x="620" y="370" width="100" height="30" as="geometry"/>
                </mxCell>
            </root>
        </mxGraphModel>
    </diagram>
    <diagram id="6gIiEEJGJO7ZXe-flgda" name="Page-2">
        <mxGraphModel dx="903" dy="770" grid="1" gridSize="10" guides="1" tooltips="1" connect="1" arrows="1" fold="1" page="1" pageScale="1" pageWidth="1169" pageHeight="827" math="0" shadow="0">
            <root>
                <mxCell id="0"/>
                <mxCell id="1" parent="0"/>
                <mxCell id="n6VmCEcvaowkcHhi3lvG-1" value="" style="whiteSpace=wrap;html=1;" vertex="1" parent="1">
                    <mxGeometry x="350" y="170" width="595" height="550" as="geometry"/>
                </mxCell>
                <mxCell id="n6VmCEcvaowkcHhi3lvG-4" style="edgeStyle=none;html=1;entryX=0;entryY=0.5;entryDx=0;entryDy=0;fontSize=22;" edge="1" parent="1" source="n6VmCEcvaowkcHhi3lvG-2" target="n6VmCEcvaowkcHhi3lvG-3">
                    <mxGeometry relative="1" as="geometry"/>
                </mxCell>
                <mxCell id="n6VmCEcvaowkcHhi3lvG-16" style="edgeStyle=orthogonalEdgeStyle;html=1;fontSize=22;curved=1;" edge="1" parent="1" source="n6VmCEcvaowkcHhi3lvG-2" target="n6VmCEcvaowkcHhi3lvG-8">
                    <mxGeometry relative="1" as="geometry"/>
                </mxCell>
                <mxCell id="n6VmCEcvaowkcHhi3lvG-2" value="cdac.lab" style="text;strokeColor=none;align=center;fillColor=none;html=1;verticalAlign=middle;whiteSpace=wrap;rounded=0;fontSize=22;fontStyle=1" vertex="1" parent="1">
                    <mxGeometry x="430" y="240" width="110" height="30" as="geometry"/>
                </mxCell>
                <mxCell id="n6VmCEcvaowkcHhi3lvG-3" value="sunbeam.lab" style="text;strokeColor=none;align=center;fillColor=none;html=1;verticalAlign=middle;whiteSpace=wrap;rounded=0;fontSize=22;fontStyle=1" vertex="1" parent="1">
                    <mxGeometry x="720" y="240" width="160" height="30" as="geometry"/>
                </mxCell>
                <mxCell id="n6VmCEcvaowkcHhi3lvG-5" value="Two-way Trust" style="text;strokeColor=none;align=center;fillColor=none;html=1;verticalAlign=middle;whiteSpace=wrap;rounded=0;fontSize=22;fontStyle=1" vertex="1" parent="1">
                    <mxGeometry x="550" y="210" width="160" height="30" as="geometry"/>
                </mxCell>
                <mxCell id="n6VmCEcvaowkcHhi3lvG-17" style="edgeStyle=orthogonalEdgeStyle;html=1;entryX=0;entryY=0.5;entryDx=0;entryDy=0;fontSize=22;curved=1;" edge="1" parent="1" source="n6VmCEcvaowkcHhi3lvG-8" target="n6VmCEcvaowkcHhi3lvG-12">
                    <mxGeometry relative="1" as="geometry"/>
                </mxCell>
                <mxCell id="n6VmCEcvaowkcHhi3lvG-8" value="Two-way Trust" style="text;strokeColor=none;align=center;fillColor=none;html=1;verticalAlign=middle;whiteSpace=wrap;rounded=0;fontSize=22;fontStyle=1" vertex="1" parent="1">
                    <mxGeometry x="240" y="430" width="190" height="30" as="geometry"/>
                </mxCell>
                <mxCell id="n6VmCEcvaowkcHhi3lvG-10" value="DC" style="whiteSpace=wrap;html=1;fontSize=22;" vertex="1" parent="1">
                    <mxGeometry x="430" y="330" width="120" height="60" as="geometry"/>
                </mxCell>
                <mxCell id="n6VmCEcvaowkcHhi3lvG-11" value="ADC" style="whiteSpace=wrap;html=1;fontSize=22;" vertex="1" parent="1">
                    <mxGeometry x="430" y="430" width="120" height="60" as="geometry"/>
                </mxCell>
                <mxCell id="n6VmCEcvaowkcHhi3lvG-12" value="Client" style="whiteSpace=wrap;html=1;fontSize=22;" vertex="1" parent="1">
                    <mxGeometry x="430" y="540" width="120" height="60" as="geometry"/>
                </mxCell>
                <mxCell id="n6VmCEcvaowkcHhi3lvG-14" value="ADC" style="whiteSpace=wrap;html=1;fontSize=22;" vertex="1" parent="1">
                    <mxGeometry x="740" y="440" width="120" height="60" as="geometry"/>
                </mxCell>
                <mxCell id="n6VmCEcvaowkcHhi3lvG-15" value="DC" style="whiteSpace=wrap;html=1;fontSize=22;" vertex="1" parent="1">
                    <mxGeometry x="740" y="340" width="120" height="60" as="geometry"/>
                </mxCell>
                <mxCell id="n6VmCEcvaowkcHhi3lvG-18" value="Acts.cdac.lab" style="text;strokeColor=none;align=center;fillColor=none;html=1;verticalAlign=middle;whiteSpace=wrap;rounded=0;fontSize=22;fontStyle=1" vertex="1" parent="1">
                    <mxGeometry x="700" y="600" width="160" height="30" as="geometry"/>
                </mxCell>
            </root>
        </mxGraphModel>
    </diagram>
    <diagram id="0HJ9M5H2SsIWUwvBx8mp" name="Page-3">
        <mxGraphModel dx="330" dy="431" grid="1" gridSize="10" guides="1" tooltips="1" connect="1" arrows="1" fold="1" page="1" pageScale="1" pageWidth="1169" pageHeight="827" math="0" shadow="0">
            <root>
                <mxCell id="0"/>
                <mxCell id="1" parent="0"/>
                <mxCell id="EH201-x3yMSiW69vlmZR-9" style="edgeStyle=orthogonalEdgeStyle;curved=1;html=1;fontSize=22;" edge="1" parent="1" source="EH201-x3yMSiW69vlmZR-1">
                    <mxGeometry relative="1" as="geometry">
                        <mxPoint x="570" y="460" as="targetPoint"/>
                    </mxGeometry>
                </mxCell>
                <mxCell id="EH201-x3yMSiW69vlmZR-1" value="Internet" style="ellipse;shape=cloud;whiteSpace=wrap;html=1;fontSize=22;" vertex="1" parent="1">
                    <mxGeometry x="380" y="160" width="380" height="140" as="geometry"/>
                </mxCell>
                <mxCell id="EH201-x3yMSiW69vlmZR-6" style="edgeStyle=orthogonalEdgeStyle;curved=1;html=1;entryX=0.306;entryY=0.138;entryDx=0;entryDy=0;entryPerimeter=0;fontSize=22;" edge="1" parent="1" source="EH201-x3yMSiW69vlmZR-4" target="EH201-x3yMSiW69vlmZR-1">
                    <mxGeometry relative="1" as="geometry"/>
                </mxCell>
                <mxCell id="EH201-x3yMSiW69vlmZR-4" value="ISP" style="whiteSpace=wrap;html=1;fontSize=22;" vertex="1" parent="1">
                    <mxGeometry x="210" y="210" width="120" height="60" as="geometry"/>
                </mxCell>
                <mxCell id="EH201-x3yMSiW69vlmZR-7" style="edgeStyle=orthogonalEdgeStyle;curved=1;html=1;entryX=0.717;entryY=0.148;entryDx=0;entryDy=0;entryPerimeter=0;fontSize=22;" edge="1" parent="1" source="EH201-x3yMSiW69vlmZR-5" target="EH201-x3yMSiW69vlmZR-1">
                    <mxGeometry relative="1" as="geometry"/>
                </mxCell>
                <mxCell id="EH201-x3yMSiW69vlmZR-5" value="US ISP" style="whiteSpace=wrap;html=1;fontSize=22;" vertex="1" parent="1">
                    <mxGeometry x="850" y="200" width="120" height="60" as="geometry"/>
                </mxCell>
                <mxCell id="EH201-x3yMSiW69vlmZR-12" style="edgeStyle=orthogonalEdgeStyle;curved=1;html=1;fontSize=22;" edge="1" parent="1" source="EH201-x3yMSiW69vlmZR-10">
                    <mxGeometry relative="1" as="geometry">
                        <mxPoint x="580" y="640" as="targetPoint"/>
                    </mxGeometry>
                </mxCell>
                <mxCell id="EH201-x3yMSiW69vlmZR-10" value="Root Servers" style="whiteSpace=wrap;html=1;fontSize=22;" vertex="1" parent="1">
                    <mxGeometry x="520" y="480" width="120" height="60" as="geometry"/>
                </mxCell>
                <mxCell id="EH201-x3yMSiW69vlmZR-11" value="TLD Servers" style="whiteSpace=wrap;html=1;fontSize=22;" vertex="1" parent="1">
                    <mxGeometry x="520" y="650" width="120" height="60" as="geometry"/>
                </mxCell>
            </root>
        </mxGraphModel>
    </diagram>
</mxfile>